# xmcd
#
# Track frame offsets:
#	150
#	23255
#	47446
#	65971
#	87311
#	111079
#	133818
#	160687
#	185904
#	211548
#	234181
#	254700
#	280809
#
# Disc length: 3908 seconds
#
# Revision: 1
# Processed by: cddbd v1.5PL3 Copyright (c) Steve Scherf et al.
# Submitted via: CDex 1.50Beta5
#
DISCID=b00f420d
DTITLE=SPEED - Dear Friends1
DYEAR=2000
DGENRE=Pop
TTITLE0=Body&Soul
TTITLE1=STEADY -Atlanta Mix-
TTITLE2=Happy Together
TTITLE3=I Remember
TTITLE4=Go! Go! Heaven
TTITLE5=Kiwi Love
TTITLE6=コケティッシュDreamin'
TTITLE7=Wake Me Up! -RISE Mix-
TTITLE8=White Love
TTITLE9=My Lonely Habit
TTITLE10=ラブリー・フレンドシップ
TTITLE11=my graduation -Album version-
TTITLE12=「おやすみ・・・・・」-Good Night Kiss version-
EXTD=
EXTT0=
EXTT1=
EXTT2=
EXTT3=
EXTT4=
EXTT5=
EXTT6=
EXTT7=
EXTT8=
EXTT9=
EXTT10=
EXTT11=
EXTT12=
PLAYORDER=
